<?xml version="1.0" standalone="no"?><!DOCTYPE svg PUBLIC "-//W3C//DTD SVG 1.1//EN" "http://www.w3.org/Graphics/SVG/1.1/DTD/svg11.dtd"><svg t="1559457137259" class="icon" style="" viewBox="0 0 1024 1024" version="1.1" xmlns="http://www.w3.org/2000/svg" p-id="8102" xmlns:xlink="http://www.w3.org/1999/xlink" width="200" height="200"><defs><style type="text/css"></style></defs><path d="M312.575 533.517l-119.491 241.657c-10.022 27.201 11.769 51.578 38.975 38.961l241.729-119.454c10.426-2.027 20.532-6.062 28.607-14.133l429.431-429.302c21.559-21.55 21.559-56.505 0-78.053l-97.597-97.569c-21.559-21.555-56.519-21.555-78.079 0l-429.437 429.298c-8.071 8.076-12.112 18.173-14.139 28.599v0zM775.667 134.164c10.775-10.779 28.257-10.779 39.036 0l58.56 58.548c10.78 10.774 10.78 28.24 0 39.024l-58.56 58.534-96.201-98.965 57.164-57.14zM677.371 232.428l98.292 96.873-312.314 312.219c-24.933-24.918-19.954-19.949-17.652-17.644l-60.427-60.411c-10.784-10.78-9.15-9.147-19.522-19.514l311.622-311.521zM414.718 670.949l-149.275 90.331c-13.601 6.31-25.804-6.757-19.484-19.484l90.353-149.216 78.404 78.371zM893.029 392.828v444.148c0 30.489-30.172 55.849-60.656 55.849h-662.522c-30.487 0-55.212-24.715-55.212-55.191v-662.316c0-30.484 25.45-60.091 55.938-60.091h444.582v-55.523h-444.577c-60.985 0-111.146 54.647-111.146 115.614v662.314c0 60.955 49.438 110.38 110.416 110.38h662.514c60.985 0 116.235-50.078 116.235-111.037v-444.147h-55.571zM893.029 392.828z" p-id="8103"></path></svg>