<?xml version="1.0" standalone="no"?><!DOCTYPE svg PUBLIC "-//W3C//DTD SVG 1.1//EN" "http://www.w3.org/Graphics/SVG/1.1/DTD/svg11.dtd"><svg t="1559228246096" class="icon" style="" viewBox="0 0 1024 1024" version="1.1" xmlns="http://www.w3.org/2000/svg" p-id="10534" xmlns:xlink="http://www.w3.org/1999/xlink" width="200" height="200"><defs><style type="text/css"></style></defs><path d="M476.5 924V100c0-19.8 16.2-36 36-36s36 16.2 36 36v824c0 19.8-16.2 36-36 36s-36-16.2-36-36z" p-id="10535"></path><path d="M100.5 476h824c19.8 0 36 16.2 36 36s-16.2 36-36 36h-824c-19.8 0-36-16.2-36-36s16.2-36 36-36zM690.1 797.6L538.4 949.3c-14.3 14.3-37.4 14.3-51.7 0L334.2 796.8c-14.3-14.3-14.6-37.9 0-52 14.1-13.5 36.5-13.4 50.4 0.5l117.6 117.6c5.8 5.8 15.1 5.8 20.8 0l115.6-115.6c14.3-14.3 37.9-14.6 52 0 13.5 14.1 13.4 36.5-0.5 50.3zM333.7 226.4L485.4 74.7c14.3-14.3 37.4-14.3 51.7 0l152.5 152.5c14.3 14.3 14.6 37.9 0 52-14.1 13.5-36.5 13.4-50.4-0.5L521.6 161.1c-5.8-5.8-15.1-5.8-20.8 0L385.1 276.7c-14.3 14.3-37.9 14.6-52 0-13.4-14.1-13.3-36.5 0.6-50.3z" p-id="10536"></path><path d="M226.7 690.1L75.1 538.4c-14.3-14.3-14.3-37.4 0-51.7l152.5-152.5c14.3-14.3 37.9-14.6 52 0 13.5 14.1 13.4 36.5-0.5 50.4L161.5 502.2c-5.8 5.8-5.8 15.1 0 20.8l115.6 115.6c14.3 14.3 14.6 37.9 0 52-14.1 13.5-36.5 13.4-50.4-0.5zM798.1 333.7l151.7 151.7c14.3 14.3 14.3 37.4 0 51.7L797.3 689.6c-14.3 14.3-37.9 14.6-52 0-13.5-14.1-13.4-36.5 0.5-50.4l117.6-117.6c5.8-5.8 5.8-15.1 0-20.8L747.8 385.1c-14.3-14.3-14.6-37.9 0-52 14.1-13.4 36.5-13.3 50.3 0.6z" p-id="10537"></path></svg>